<?xml version="1.0" encoding="UTF-8"?>
<svg version="1.1" xmlns="http://www.w3.org/2000/svg" width="256" height="256">
<path d="M0 0 C9.95307411 -0.11589171 19.9059875 -0.20471419 29.85959911 -0.25906086 C34.48159315 -0.28514583 39.10312531 -0.3205234 43.72485352 -0.37719727 C48.18581488 -0.43155689 52.64633223 -0.46142882 57.10759926 -0.47438622 C58.80889183 -0.48361907 60.51016031 -0.50164913 62.21126366 -0.52865028 C64.59604615 -0.56499504 66.97899842 -0.56994337 69.36401367 -0.56762695 C70.4170594 -0.59459152 70.4170594 -0.59459152 71.49137878 -0.62210083 C75.3608272 -0.58148162 76.87015632 -0.10884292 79.87809753 2.41259766 C83.40760757 6.71640647 83.40760757 6.71640647 84.9453125 8.86328125 C85.45908447 9.57685791 85.97285645 10.29043457 86.50219727 11.02563477 C87.03772217 11.78030029 87.57324707 12.53496582 88.125 13.3125 C88.693396 14.10648193 89.26179199 14.90046387 89.84741211 15.71850586 C93.93312008 21.44556394 97.93975471 27.22490441 101.90917969 33.03295898 C110.86878408 46.14082787 120.09225705 59.0736768 129.46142578 71.89160156 C130.47167944 73.27601137 131.47799987 74.6633017 132.47998047 76.05371094 C133.82806932 77.92058029 135.1923255 79.77430753 136.5625 81.625 C137.32691406 82.66914062 138.09132812 83.71328125 138.87890625 84.7890625 C139.57886719 85.51867187 140.27882812 86.24828125 141 87 C145.15000988 87.43396987 145.15000988 87.43396987 147.98828125 84.4375 C149.1074018 83.30245427 150.214945 82.15591203 151.3125 81 C151.89354492 80.40276123 152.47458984 79.80552246 153.07324219 79.19018555 C156.60425602 75.5370204 160.04630913 71.81832325 163.3359375 67.9453125 C165.30139014 65.64767068 167.33729871 63.42126877 169.375 61.1875 C172.48528851 57.74621795 175.46478312 54.23678702 178.375 50.625 C182.05571847 46.07219493 185.92648648 41.76582589 189.91137695 37.4831543 C193.71064617 33.37585417 197.23622049 29.08407957 200.74609375 24.7265625 C203.91479643 20.89336584 207.26933451 17.24413579 210.6328125 13.58203125 C212.77898731 11.24107159 214.90040046 8.88274056 217 6.5 C217.53625 5.8915625 218.0725 5.283125 218.625 4.65625 C220.18483407 2.83615741 220.18483407 2.83615741 222 0 C224.70556641 -0.34057617 224.70556641 -0.34057617 228.1015625 -0.29296875 C229.31328125 -0.28330078 230.525 -0.27363281 231.7734375 -0.26367188 C233.04445312 -0.23853516 234.31546875 -0.21339844 235.625 -0.1875 C236.90375 -0.17396484 238.1825 -0.16042969 239.5 -0.14648438 C242.66708282 -0.11103196 245.83333541 -0.06161441 249 0 C247.42689429 3.2962562 245.68519233 5.62945017 243.1875 8.3125 C239.25245332 12.60125874 235.42009487 16.96204688 231.625 21.375 C227.08196312 26.64457776 222.45929664 31.82510033 217.74047852 36.9375 C213.11851894 41.94540041 208.64833045 47.06872289 204.22265625 52.25 C198.88910411 58.49266096 193.52417859 64.69087553 188.01171875 70.77734375 C179.80397419 79.84570618 172.06249014 89.27749085 164.5625 98.9375 C164.13735107 99.48108154 163.71220215 100.02466309 163.27416992 100.5847168 C159.26907526 105.42302097 159.26907526 105.42302097 158.08203125 111.30859375 C159.33963492 114.99578069 161.43707494 117.92704107 163.6875 121.0625 C164.17371826 121.7544043 164.65993652 122.44630859 165.16088867 123.15917969 C166.21551306 124.65880939 167.27367664 126.155955 168.33496094 127.65087891 C170.01740595 130.02455719 171.68643212 132.40711749 173.3515625 134.79296875 C176.29877016 139.0156081 179.2533154 143.23303794 182.21044922 147.44873047 C190.16164573 158.78433804 198.09669941 170.13093888 206 181.5 C220.05805956 201.73401631 220.05805956 201.73401631 234.30517578 221.83496094 C239.57695433 229.19506641 244.80394676 236.58626187 250 244 C250.6909375 244.98097656 251.381875 245.96195313 252.09375 246.97265625 C252.6403125 247.76542969 253.186875 248.55820313 253.75 249.375 C254.19859375 250.02210938 254.6471875 250.66921875 255.109375 251.3359375 C256 253 256 253 256 256 C246.11649828 256.25556012 236.2337897 256.45066069 226.34764957 256.56993389 C221.75620911 256.62720003 217.16703832 256.704777 212.5769043 256.82983398 C208.14168183 256.94990566 203.70863266 257.0152342 199.27190971 257.04364967 C197.58481062 257.06388033 195.89782261 257.1033924 194.21165657 257.16303062 C181.02576958 257.61059203 181.02576958 257.61059203 176.01365662 253.6257019 C173.71931254 250.85207134 171.83885699 248.08897647 170 245 C168.96197073 243.58754333 167.91186553 242.18370877 166.83984375 240.796875 C165.86822849 239.45091518 164.90087184 238.10187232 163.9375 236.75 C163.4000415 236.00113525 162.86258301 235.25227051 162.30883789 234.48071289 C156.40745824 226.22718192 150.63349747 217.88424981 144.8515625 209.546875 C136.33864044 197.27516397 127.67336581 185.11747231 118.91015625 173.0234375 C116.25681951 169.36068875 113.62471747 165.68330518 111 162 C103.03945798 165.53216103 97.73799144 173.45137422 92.42578125 180.06640625 C88.95248091 184.2668065 85.25283361 188.24037612 81.55078125 192.23828125 C77.32666728 196.81170939 73.26567752 201.51670681 69.22265625 206.25 C68.19015817 207.45837948 67.15760454 208.6667115 66.125 209.875 C65.60518555 210.4836792 65.08537109 211.0923584 64.54980469 211.71948242 C61.52081344 215.25662058 58.44835977 218.74409531 55.3125 222.1875 C51.48657903 226.39876553 47.90614017 230.77383344 44.33203125 235.19921875 C41.14444384 239.02752725 37.7680878 242.66537051 34.359375 246.296875 C32.03618324 248.72551606 32.03618324 248.72551606 31.07739258 250.86938477 C29.9054457 253.1082816 29.0079959 254.44327561 27 256 C22.3748891 256.88086322 17.87392038 256.658123 13.1875 256.4375 C11.92228516 256.40591797 10.65707031 256.37433594 9.35351562 256.34179688 C6.23332143 256.25937665 3.11784197 256.14435922 0 256 C0.84567337 251.81707564 2.68233322 249.86158119 5.625 246.75 C6.54740894 245.76221708 7.46928246 244.77393391 8.390625 243.78515625 C9.25171875 242.86605469 10.1128125 241.94695312 11 241 C14.30752446 237.3113912 17.5321128 233.55139223 20.74609375 229.78125 C26.32756386 223.23748858 31.96800738 216.77691033 37.77734375 210.43359375 C41.86049757 205.962935 45.81842379 201.38858111 49.74609375 196.78125 C55.32876186 190.23608405 60.97024022 183.77398615 66.78125 177.4296875 C70.40423416 173.46226471 73.91895343 169.40474918 77.43457031 165.34228516 C79.10202538 163.41552713 80.76969112 161.48895177 82.4375 159.5625 C83.00017578 158.91240967 83.56285156 158.26231934 84.14257812 157.5925293 C88.38838012 152.69243389 92.67055961 147.82647584 97 143 C95.66172714 140.19878257 94.16904216 137.64801136 92.41796875 135.0859375 C91.90476074 134.33417236 91.39155273 133.58240723 90.86279297 132.80786133 C90.30994629 132.00501709 89.75709961 131.20217285 89.1875 130.375 C88.6114502 129.53541748 88.03540039 128.69583496 87.44189453 127.83081055 C82.96679493 121.33699242 78.37363921 114.93507097 73.73486328 108.55761719 C69.81243478 103.15527213 65.99719749 97.68927921 62.23168945 92.17675781 C53.79831085 79.83552427 45.16245197 67.63318067 36.53491211 55.42724609 C32.71751437 50.02383072 28.91798489 44.60807561 25.125 39.1875 C24.5470166 38.3617749 23.9690332 37.5360498 23.37353516 36.68530273 C20.29131416 32.28036277 17.21359519 27.87233629 14.140625 23.4609375 C13.19485596 22.10512573 13.19485596 22.10512573 12.22998047 20.72192383 C11.02444781 18.99359173 9.82026951 17.26431388 8.61767578 15.53393555 C6.36640641 12.30831042 4.15421862 9.18109386 1.6015625 6.18359375 C-0 4 -0 4 0 0 Z M37 19 C36.67 19.66 36.34 20.32 36 21 C43.03483285 34.93385811 54.00960622 47.66147581 63.14306641 60.26782227 C67.30236109 66.01459142 71.40009405 71.80250843 75.48046875 77.60546875 C79.11454566 82.7656672 82.79671401 87.8892894 86.5 93 C90.70685924 98.8056656 94.87595272 104.63521719 99 110.5 C105.78090087 120.13930795 112.68947884 129.685175 119.61328125 139.22216797 C126.42006931 148.59806307 133.13949817 158.02693811 139.76489258 167.53198242 C144.19422991 173.87621028 148.70238882 180.15922628 153.24609375 186.421875 C157.36926043 192.11003925 161.42845066 197.8407178 165.46777344 203.58862305 C169.74112248 209.65900998 174.08558862 215.67658268 178.4609375 221.67382812 C178.96625 222.36927734 179.4715625 223.06472656 179.9921875 223.78125 C180.50410645 224.4626001 181.01602539 225.1439502 181.54345703 225.84594727 C183 228 183 228 184.14013672 230.51147461 C185.51668698 233.31667125 186.5643176 235.0207657 189 237 C194.49584898 238.12328999 199.80078979 237.85094633 205.375 237.5625 C206.8892043 237.51731679 208.40353766 237.47625881 209.91796875 237.43945312 C213.61467578 237.34065144 217.30651617 237.18559423 221 237 C218.30126636 232.08980408 215.36557905 227.5980064 212 223.125 C207.9049852 217.61288084 203.88599049 212.05555057 199.9375 206.4375 C198.92448583 204.99739115 197.91146506 203.55728693 196.8984375 202.1171875 C196.40956055 201.42206055 195.92068359 200.72693359 195.41699219 200.01074219 C193.30958817 197.02029087 191.18882077 194.0395218 189.0625 191.0625 C188.46356934 190.22356201 188.46356934 190.22356201 187.85253906 189.36767578 C185.56351755 186.16756942 183.26007628 182.97841325 180.9453125 179.796875 C175.28102773 172.00376607 169.71430833 164.165359 164.3125 156.1875 C160.64421956 150.77254911 156.91674645 145.45551337 152.875 140.3125 C148.79583372 135.11008504 145.0276125 129.75758477 141.3137207 124.29003906 C137.81460734 119.15092612 134.21559942 114.09316636 130.5625 109.0625 C126.33278032 103.23720106 122.13956477 97.38973584 118 91.5 C113.87622425 85.63502915 109.70685618 79.80566138 105.5 74 C101.29314112 68.19433489 97.1240118 62.36480754 93 56.5 C84.44167901 44.31649078 84.44167901 44.31649078 75.62695312 32.31860352 C74 30 74 30 72.35742188 27.03881836 C68.77769389 21.01237275 68.77769389 21.01237275 62.64550781 18.12597656 C58.70787799 17.9169079 54.93294 18.03707864 51 18.3125 C49.63952193 18.36776841 48.27882688 18.41794275 46.91796875 18.46289062 C43.60639224 18.5920656 40.30602408 18.77236063 37 19 Z " fill="#FFFFFF" transform="translate(0,0)"/>
</svg>
